<mxfile host="app.diagrams.net" agent="Mozilla/5.0 (Windows NT 10.0; Win64; x64) AppleWebKit/537.36 (KHTML, like Gecko) Chrome/131.0.0.0 Safari/537.36 Edg/131.0.0.0" version="25.0.1">
  <diagram name="Страница — 1" id="PVugiQpbwFdGh3HvbZJp">
    <mxGraphModel dx="2700" dy="2124" grid="1" gridSize="10" guides="1" tooltips="1" connect="1" arrows="1" fold="1" page="1" pageScale="1" pageWidth="827" pageHeight="1169" math="0" shadow="0">
      <root>
        <mxCell id="0" />
        <mxCell id="1" parent="0" />
        <mxCell id="kyWfykQ2zABLwTMB3iNx-63" value="&lt;font style=&quot;font-size: 27px;&quot;&gt;Функции администратора&lt;/font&gt;" style="html=1;whiteSpace=wrap;labelPosition=center;verticalLabelPosition=bottom;align=center;verticalAlign=top;" parent="1" vertex="1">
          <mxGeometry x="-265" y="580" width="1160" height="520" as="geometry" />
        </mxCell>
        <mxCell id="kyWfykQ2zABLwTMB3iNx-62" value="&lt;font style=&quot;font-size: 27px;&quot;&gt;Функции сотрудника&lt;/font&gt;" style="html=1;whiteSpace=wrap;labelPosition=center;verticalLabelPosition=bottom;align=center;verticalAlign=top;fontSize=16;" parent="1" vertex="1">
          <mxGeometry x="-240" y="-80" width="1110" height="580" as="geometry" />
        </mxCell>
        <mxCell id="6UCJ180wbrHKzX48nUY--8" style="edgeStyle=orthogonalEdgeStyle;rounded=0;orthogonalLoop=1;jettySize=auto;html=1;exitX=1;exitY=0.3333333333333333;exitDx=0;exitDy=0;exitPerimeter=0;entryX=0;entryY=0.5;entryDx=0;entryDy=0;" edge="1" parent="1" source="kyWfykQ2zABLwTMB3iNx-1" target="6UCJ180wbrHKzX48nUY--6">
          <mxGeometry relative="1" as="geometry">
            <Array as="points">
              <mxPoint x="700" y="33" />
            </Array>
          </mxGeometry>
        </mxCell>
        <mxCell id="6UCJ180wbrHKzX48nUY--14" style="edgeStyle=orthogonalEdgeStyle;rounded=0;orthogonalLoop=1;jettySize=auto;html=1;exitX=0;exitY=0.3333333333333333;exitDx=0;exitDy=0;exitPerimeter=0;entryX=1;entryY=0.5;entryDx=0;entryDy=0;" edge="1" parent="1" source="kyWfykQ2zABLwTMB3iNx-1" target="6UCJ180wbrHKzX48nUY--10">
          <mxGeometry relative="1" as="geometry" />
        </mxCell>
        <mxCell id="6UCJ180wbrHKzX48nUY--30" style="edgeStyle=orthogonalEdgeStyle;rounded=0;orthogonalLoop=1;jettySize=auto;html=1;exitX=1;exitY=0.3333333333333333;exitDx=0;exitDy=0;exitPerimeter=0;entryX=0.5;entryY=0;entryDx=0;entryDy=0;" edge="1" parent="1" source="kyWfykQ2zABLwTMB3iNx-1" target="6UCJ180wbrHKzX48nUY--27">
          <mxGeometry relative="1" as="geometry" />
        </mxCell>
        <mxCell id="6UCJ180wbrHKzX48nUY--31" style="edgeStyle=orthogonalEdgeStyle;rounded=0;orthogonalLoop=1;jettySize=auto;html=1;exitX=1;exitY=0.3333333333333333;exitDx=0;exitDy=0;exitPerimeter=0;entryX=0.5;entryY=0;entryDx=0;entryDy=0;" edge="1" parent="1" source="kyWfykQ2zABLwTMB3iNx-1" target="kyWfykQ2zABLwTMB3iNx-9">
          <mxGeometry relative="1" as="geometry">
            <Array as="points">
              <mxPoint x="670" y="33" />
              <mxPoint x="670" y="290" />
            </Array>
          </mxGeometry>
        </mxCell>
        <mxCell id="kyWfykQ2zABLwTMB3iNx-1" value="Сотрудник компании" style="shape=umlActor;verticalLabelPosition=bottom;verticalAlign=top;html=1;outlineConnect=0;fillColor=#f8cecc;strokeColor=#b85450;" parent="1" vertex="1">
          <mxGeometry x="417.5" y="-50" width="125" height="250" as="geometry" />
        </mxCell>
        <mxCell id="6UCJ180wbrHKzX48nUY--25" style="edgeStyle=orthogonalEdgeStyle;rounded=0;orthogonalLoop=1;jettySize=auto;html=1;exitX=1;exitY=0.3333333333333333;exitDx=0;exitDy=0;exitPerimeter=0;entryX=0;entryY=0.5;entryDx=0;entryDy=0;" edge="1" parent="1" source="kyWfykQ2zABLwTMB3iNx-2" target="kyWfykQ2zABLwTMB3iNx-15">
          <mxGeometry relative="1" as="geometry" />
        </mxCell>
        <mxCell id="kyWfykQ2zABLwTMB3iNx-2" value="Администратор" style="shape=umlActor;verticalLabelPosition=bottom;verticalAlign=top;html=1;outlineConnect=0;fillColor=#dae8fc;strokeColor=#6c8ebf;" parent="1" vertex="1">
          <mxGeometry x="-195" y="660" width="180" height="360" as="geometry" />
        </mxCell>
        <mxCell id="kyWfykQ2zABLwTMB3iNx-6" value="Создать клиента" style="ellipse;whiteSpace=wrap;html=1;" parent="1" vertex="1">
          <mxGeometry x="500" y="350" width="140" height="70" as="geometry" />
        </mxCell>
        <mxCell id="kyWfykQ2zABLwTMB3iNx-7" value="Просмотреть список клиентов" style="ellipse;whiteSpace=wrap;html=1;" parent="1" vertex="1">
          <mxGeometry x="370" y="300" width="140" height="70" as="geometry" />
        </mxCell>
        <mxCell id="kyWfykQ2zABLwTMB3iNx-8" value="Редактировать заявку" style="ellipse;whiteSpace=wrap;html=1;" parent="1" vertex="1">
          <mxGeometry x="190" y="290" width="140" height="70" as="geometry" />
        </mxCell>
        <mxCell id="kyWfykQ2zABLwTMB3iNx-10" value="Поиск заявки по фамилии клиента" style="ellipse;whiteSpace=wrap;html=1;" parent="1" vertex="1">
          <mxGeometry x="110" y="220" width="140" height="70" as="geometry" />
        </mxCell>
        <mxCell id="6UCJ180wbrHKzX48nUY--5" style="edgeStyle=orthogonalEdgeStyle;rounded=0;orthogonalLoop=1;jettySize=auto;html=1;exitX=1;exitY=0.5;exitDx=0;exitDy=0;" edge="1" parent="1" source="kyWfykQ2zABLwTMB3iNx-15" target="6UCJ180wbrHKzX48nUY--3">
          <mxGeometry relative="1" as="geometry" />
        </mxCell>
        <mxCell id="6UCJ180wbrHKzX48nUY--23" style="edgeStyle=orthogonalEdgeStyle;rounded=0;orthogonalLoop=1;jettySize=auto;html=1;exitX=0.5;exitY=1;exitDx=0;exitDy=0;entryX=0;entryY=0.5;entryDx=0;entryDy=0;" edge="1" parent="1" source="kyWfykQ2zABLwTMB3iNx-15" target="6UCJ180wbrHKzX48nUY--22">
          <mxGeometry relative="1" as="geometry" />
        </mxCell>
        <mxCell id="kyWfykQ2zABLwTMB3iNx-15" value="Управление пользователями" style="ellipse;whiteSpace=wrap;html=1;fontSize=33;" parent="1" vertex="1">
          <mxGeometry x="125" y="696" width="306" height="170" as="geometry" />
        </mxCell>
        <mxCell id="kyWfykQ2zABLwTMB3iNx-5" value="Создать заявку" style="ellipse;whiteSpace=wrap;html=1;" parent="1" vertex="1">
          <mxGeometry x="270" y="220" width="140" height="70" as="geometry" />
        </mxCell>
        <mxCell id="kyWfykQ2zABLwTMB3iNx-9" value="Добавить оборудование\услугу" style="ellipse;whiteSpace=wrap;html=1;" parent="1" vertex="1">
          <mxGeometry x="610" y="290" width="140" height="70" as="geometry" />
        </mxCell>
        <mxCell id="6UCJ180wbrHKzX48nUY--3" value="Регистрация сотрудника отдела продаж" style="ellipse;whiteSpace=wrap;html=1;fontSize=33;" vertex="1" parent="1">
          <mxGeometry x="495" y="688.5" width="350" height="185" as="geometry" />
        </mxCell>
        <mxCell id="6UCJ180wbrHKzX48nUY--6" value="Редактировать сведения о компании" style="ellipse;whiteSpace=wrap;html=1;" vertex="1" parent="1">
          <mxGeometry x="700" y="220" width="140" height="70" as="geometry" />
        </mxCell>
        <mxCell id="6UCJ180wbrHKzX48nUY--9" value="&lt;span style=&quot;font-size: 18.6667px; text-align: left;&quot;&gt;Формирование сметы на выполнение заявки&lt;/span&gt;" style="ellipse;whiteSpace=wrap;html=1;" vertex="1" parent="1">
          <mxGeometry x="-150" y="194.5" width="242" height="121" as="geometry" />
        </mxCell>
        <mxCell id="6UCJ180wbrHKzX48nUY--11" style="edgeStyle=orthogonalEdgeStyle;rounded=0;orthogonalLoop=1;jettySize=auto;html=1;exitX=1;exitY=1;exitDx=0;exitDy=0;entryX=0.5;entryY=0;entryDx=0;entryDy=0;" edge="1" parent="1" source="6UCJ180wbrHKzX48nUY--10" target="kyWfykQ2zABLwTMB3iNx-5">
          <mxGeometry relative="1" as="geometry" />
        </mxCell>
        <mxCell id="6UCJ180wbrHKzX48nUY--13" style="edgeStyle=orthogonalEdgeStyle;rounded=0;orthogonalLoop=1;jettySize=auto;html=1;exitX=0.5;exitY=1;exitDx=0;exitDy=0;entryX=0.5;entryY=0;entryDx=0;entryDy=0;" edge="1" parent="1" source="6UCJ180wbrHKzX48nUY--10" target="kyWfykQ2zABLwTMB3iNx-8">
          <mxGeometry relative="1" as="geometry" />
        </mxCell>
        <mxCell id="6UCJ180wbrHKzX48nUY--15" style="edgeStyle=orthogonalEdgeStyle;rounded=0;orthogonalLoop=1;jettySize=auto;html=1;exitX=0;exitY=0.5;exitDx=0;exitDy=0;entryX=0;entryY=0;entryDx=0;entryDy=0;" edge="1" parent="1" source="6UCJ180wbrHKzX48nUY--10" target="kyWfykQ2zABLwTMB3iNx-10">
          <mxGeometry relative="1" as="geometry" />
        </mxCell>
        <mxCell id="6UCJ180wbrHKzX48nUY--16" style="edgeStyle=orthogonalEdgeStyle;rounded=0;orthogonalLoop=1;jettySize=auto;html=1;exitX=0;exitY=0.5;exitDx=0;exitDy=0;" edge="1" parent="1" source="6UCJ180wbrHKzX48nUY--10" target="6UCJ180wbrHKzX48nUY--9">
          <mxGeometry relative="1" as="geometry">
            <Array as="points">
              <mxPoint x="10" y="160" />
            </Array>
          </mxGeometry>
        </mxCell>
        <mxCell id="6UCJ180wbrHKzX48nUY--18" style="edgeStyle=orthogonalEdgeStyle;rounded=0;orthogonalLoop=1;jettySize=auto;html=1;exitX=0;exitY=0.5;exitDx=0;exitDy=0;entryX=0.5;entryY=0;entryDx=0;entryDy=0;" edge="1" parent="1" source="6UCJ180wbrHKzX48nUY--10" target="6UCJ180wbrHKzX48nUY--17">
          <mxGeometry relative="1" as="geometry" />
        </mxCell>
        <mxCell id="6UCJ180wbrHKzX48nUY--21" style="edgeStyle=orthogonalEdgeStyle;rounded=0;orthogonalLoop=1;jettySize=auto;html=1;exitX=0;exitY=0.5;exitDx=0;exitDy=0;entryX=1;entryY=0.5;entryDx=0;entryDy=0;" edge="1" parent="1" source="6UCJ180wbrHKzX48nUY--10" target="6UCJ180wbrHKzX48nUY--19">
          <mxGeometry relative="1" as="geometry" />
        </mxCell>
        <mxCell id="6UCJ180wbrHKzX48nUY--10" value="Управление заказами" style="ellipse;whiteSpace=wrap;html=1;fontSize=16;" vertex="1" parent="1">
          <mxGeometry x="160" y="110" width="200" height="100" as="geometry" />
        </mxCell>
        <mxCell id="6UCJ180wbrHKzX48nUY--17" value="&lt;b style=&quot;font-size: 18.6667px; text-align: left;&quot;&gt;Формирование&lt;br&gt;отчета о сумме заказов за квартал&lt;/b&gt;se" style="ellipse;whiteSpace=wrap;html=1;" vertex="1" parent="1">
          <mxGeometry x="-20" y="350" width="240" height="120" as="geometry" />
        </mxCell>
        <mxCell id="6UCJ180wbrHKzX48nUY--19" value="&lt;b style=&quot;text-align: left;&quot;&gt;&lt;font style=&quot;font-size: 14px;&quot;&gt;Перекрестный&lt;br&gt;отчет о сумме заказов за квартал&lt;/font&gt;&lt;/b&gt;" style="ellipse;whiteSpace=wrap;html=1;" vertex="1" parent="1">
          <mxGeometry x="-200" y="90" width="190" height="95" as="geometry" />
        </mxCell>
        <mxCell id="6UCJ180wbrHKzX48nUY--22" value="&lt;font&gt;&lt;span style=&quot;text-align: left;&quot;&gt;Управление правами&amp;nbsp;&lt;/span&gt;&lt;span style=&quot;text-align: left;&quot;&gt;доступа&lt;/span&gt;&lt;/font&gt;" style="ellipse;whiteSpace=wrap;html=1;fontSize=33;" vertex="1" parent="1">
          <mxGeometry x="490" y="900" width="360" height="161" as="geometry" />
        </mxCell>
        <mxCell id="6UCJ180wbrHKzX48nUY--28" style="edgeStyle=orthogonalEdgeStyle;rounded=0;orthogonalLoop=1;jettySize=auto;html=1;exitX=0;exitY=1;exitDx=0;exitDy=0;entryX=0.5;entryY=0;entryDx=0;entryDy=0;" edge="1" parent="1" source="6UCJ180wbrHKzX48nUY--27" target="kyWfykQ2zABLwTMB3iNx-7">
          <mxGeometry relative="1" as="geometry">
            <Array as="points">
              <mxPoint x="520" y="290" />
              <mxPoint x="440" y="290" />
            </Array>
          </mxGeometry>
        </mxCell>
        <mxCell id="6UCJ180wbrHKzX48nUY--29" style="edgeStyle=orthogonalEdgeStyle;rounded=0;orthogonalLoop=1;jettySize=auto;html=1;exitX=0.5;exitY=1;exitDx=0;exitDy=0;entryX=0.5;entryY=0;entryDx=0;entryDy=0;" edge="1" parent="1" source="6UCJ180wbrHKzX48nUY--27" target="kyWfykQ2zABLwTMB3iNx-6">
          <mxGeometry relative="1" as="geometry" />
        </mxCell>
        <mxCell id="6UCJ180wbrHKzX48nUY--27" value="Управление клиентами" style="ellipse;whiteSpace=wrap;html=1;" vertex="1" parent="1">
          <mxGeometry x="500" y="220" width="140" height="70" as="geometry" />
        </mxCell>
      </root>
    </mxGraphModel>
  </diagram>
</mxfile>
